<svg width="90" height="21" viewBox="0 0 90 21" fill="none" xmlns="http://www.w3.org/2000/svg">
<g clip-path="url(#clip0_4229_12213)">
<path d="M19.4792 8.75244H13.3995L18.6646 5.71151L17.695 4.03171L12.4287 7.07159L15.4697 1.80641L13.7888 0.835676L10.7489 6.10191V0.0211029H8.80853V6.10191L5.76865 0.835676L4.0878 1.80641L7.12873 7.07159L1.8625 4.03171L0.89282 5.71151L6.158 8.75244H0.0782471V10.6918H6.158L0.89282 13.7327L1.8625 15.4125L8.80853 11.403V17.4827H1.8625V19.4231H17.695V17.4827H10.7489V11.403L17.695 15.4125L18.6646 13.7327L13.3995 10.6918H19.4792V8.75244Z" fill="#27364E"/>
<path d="M37.6139 12.7029C37.6139 14.2328 36.5672 15.3428 35.1258 15.3428C33.6845 15.3428 32.6378 14.2075 32.6378 12.7029C32.6378 11.1982 33.6845 10.0323 35.1258 10.0323C36.5672 10.0323 37.6139 11.155 37.6139 12.7029ZM35.1406 8.78722C32.9776 8.78722 31.3463 10.4702 31.3463 12.7029C31.3463 14.9356 32.9776 16.5879 35.1406 16.5879C37.3037 16.5879 38.9043 14.9535 38.9043 12.7029C38.9043 10.4522 37.2857 8.78722 35.1406 8.78722Z" fill="#27364E"/>
<path d="M45.8557 12.688C45.8557 14.2264 44.8407 15.3427 43.4426 15.3427C42.0445 15.3427 41.0453 14.2338 41.0453 12.7629C41.0453 11.9631 41.2616 11.3047 41.6868 10.8056C42.1173 10.2854 42.6924 10.0332 43.4426 10.0332C44.8407 10.0332 45.8557 11.1496 45.8557 12.688ZM43.6705 8.78711C42.589 8.78711 41.6847 9.21972 41.0453 10.0396V9.01397H39.7549V18.601H41.0453V15.3343C41.6837 16.1541 42.589 16.5868 43.6705 16.5868C45.6521 16.5868 47.1472 14.9101 47.1472 12.6859C47.1472 10.4616 45.6521 8.785 43.6705 8.785" fill="#27364E"/>
<path d="M54.0519 12.7029C54.0519 14.2328 53.0052 15.3428 51.5639 15.3428C50.1226 15.3428 49.0759 14.2075 49.0759 12.7029C49.0759 11.1982 50.1226 10.0323 51.5639 10.0323C53.0052 10.0323 54.0519 11.155 54.0519 12.7029ZM51.5787 8.78722C49.4156 8.78722 47.7844 10.4702 47.7844 12.7029C47.7844 14.9356 49.4156 16.5879 51.5787 16.5879C53.7417 16.5879 55.3424 14.9535 55.3424 12.7029C55.3424 10.4522 53.7238 8.78722 51.5787 8.78722Z" fill="#27364E"/>
<path d="M31.7433 5.68396H29.9622L24.582 10.7328V5.68396H23.3063V16.3758H24.582V12.4474L25.9611 11.157L30.1131 16.361L30.1247 16.3758H31.7707L26.8981 10.2538L31.7433 5.68396Z" fill="#27364E"/>
<path d="M72.2016 12.7029C72.2016 14.2328 71.1549 15.3428 69.7136 15.3428C68.2723 15.3428 67.2256 14.2075 67.2256 12.7029C67.2256 11.1982 68.2723 10.0323 69.7136 10.0323C71.1549 10.0323 72.2016 11.155 72.2016 12.7029ZM69.7284 8.78722C67.5653 8.78722 65.9341 10.4702 65.9341 12.7029C65.9341 14.9356 67.5653 16.5879 69.7284 16.5879C71.8914 16.5879 73.4921 14.9535 73.4921 12.7029C73.4921 10.4522 71.8735 8.78722 69.7284 8.78722Z" fill="#27364E"/>
<path d="M80.4446 12.688C80.4446 14.2264 79.4295 15.3427 78.0314 15.3427C76.6334 15.3427 75.6341 14.2338 75.6341 12.7629C75.6341 11.9631 75.8504 11.3047 76.2757 10.8056C76.7062 10.2854 77.2812 10.0332 78.0314 10.0332C79.4295 10.0332 80.4446 11.1496 80.4446 12.688ZM78.2583 8.78711C77.1768 8.78711 76.2725 9.21972 75.6331 10.0396V9.01397H74.3427V18.601H75.6331V15.3343C76.2715 16.1541 77.1768 16.5868 78.2583 16.5868C80.2399 16.5868 81.735 14.9101 81.735 12.6859C81.735 10.4616 80.2409 8.785 78.2583 8.785" fill="#27364E"/>
<path d="M88.6407 12.7029C88.6407 14.2328 87.594 15.3428 86.1527 15.3428C84.7114 15.3428 83.6647 14.2075 83.6647 12.7029C83.6647 11.1982 84.7114 10.0323 86.1527 10.0323C87.594 10.0323 88.6407 11.155 88.6407 12.7029ZM86.1675 8.78722C84.0044 8.78722 82.3732 10.4702 82.3732 12.7029C82.3732 14.9356 84.0044 16.5879 86.1675 16.5879C88.3305 16.5879 89.9312 14.9535 89.9312 12.7029C89.9312 10.4522 88.3126 8.78722 86.1675 8.78722Z" fill="#27364E"/>
<path d="M66.331 5.68396H64.5499L59.1707 10.7328V5.68396H57.8951V16.3758H59.1707V12.4474L60.5498 11.157L64.7008 16.361L64.7134 16.3758H66.3595L61.4857 10.2538L66.331 5.68396Z" fill="#27364E"/>
</g>
<defs>
<clipPath id="clip0_4229_12213">
<rect width="89.8984" height="20.6809" fill="white" transform="translate(0.0507812)"/>
</clipPath>
</defs>
</svg>
