<svg width="24" height="24" viewBox="0 0 24 24" fill="none" xmlns="http://www.w3.org/2000/svg">
    <rect width="24" height="24" />
    <g id="phone" clip-path="url(#clip0_392_4919)">
        <rect width="360" height="800" transform="translate(-30 -182)" />
        <g id="Frame 3497">
            <g id="Container">
                <g id="Input field">
                    <g id="Input with label">
                        <g id="Frame 3465966">
                            <g id="Input" filter="url(#filter0_d_392_4919)">
                                <rect x="-14" y="-14" width="86" height="52" rx="8" shape-rendering="crispEdges" />
                                <rect x="-13.5" y="-13.5" width="85" height="51" rx="7.5" stroke=""
                                    shape-rendering="crispEdges" />
                                <g id="twemoji:flag-kenya" clip-path="url(#clip1_392_4919)">
                                    <path id="Vector"
                                        d="M24 17.9999C24 18.7072 23.719 19.3854 23.219 19.8855C22.7189 20.3856 22.0406 20.6666 21.3333 20.6666H2.66667C1.95942 20.6666 1.28115 20.3856 0.781049 19.8855C0.280952 19.3854 0 18.7072 0 17.9999V5.99992C0 5.29267 0.280952 4.6144 0.781049 4.1143C1.28115 3.6142 1.95942 3.33325 2.66667 3.33325H21.3333C22.0406 3.33325 22.7189 3.6142 23.219 4.1143C23.719 4.6144 24 5.29267 24 5.99992V17.9999Z"
                                        fill="#006600" />
                                    <path id="Vector_2" d="M0 8.66675H24V15.3334H0V8.66675Z" fill="#BB1600" />
                                    <path id="Vector_3"
                                        d="M21.3333 3.33325H2.66667C1.95942 3.33325 1.28115 3.6142 0.781049 4.1143C0.280952 4.6144 0 5.29267 0 5.99992L0 8.66658H24V5.99992C24 5.29267 23.719 4.6144 23.219 4.1143C22.7189 3.6142 22.0406 3.33325 21.3333 3.33325Z"
                                        fill="#141414" />
                                    <path id="Vector_4"
                                        d="M0 8.66675H24V9.33341H0V8.66675ZM0 14.6667H24V15.3334H0V14.6667Z"
                                        fill="#EEEEEE" />
                                    <path id="Vector_5"
                                        d="M15.3693 6.26935C15.3253 6.24335 15.2453 6.32868 14.84 6.77868C14.696 6.93868 14.516 7.13802 14.3167 7.35202C13.9113 7.78735 13.4873 8.32602 13.7947 8.64202L8.95133 16.7827C8.94399 16.7947 8.93866 16.814 8.95333 16.8407C8.9762 16.8727 9.0054 16.8997 9.03911 16.92C9.07282 16.9403 9.11033 16.9534 9.14933 16.9587H9.15133C9.18199 16.9587 9.19666 16.9447 9.20399 16.9327L14.0493 8.78935C14.4667 8.88802 14.732 8.26668 14.9193 7.71202C15.0127 7.43402 15.102 7.18135 15.1733 6.97868C15.3747 6.40802 15.4107 6.29402 15.3693 6.26935Z"
                                        fill="#141414" />
                                    <path id="Vector_6"
                                        d="M14.87 6.80544C14.726 6.96544 14.546 7.16477 14.346 7.37944C13.7554 8.01411 13.5967 8.39811 13.8334 8.62477L13.8454 8.63544L8.98536 16.8034C8.98269 16.8088 8.98602 16.8174 8.98869 16.8214C9.02798 16.8733 9.08578 16.9079 9.15002 16.9181H9.15136C9.15802 16.9181 9.16669 16.9174 9.17002 16.9114L14.0227 8.75544L14.0307 8.74211L14.0454 8.74611C14.3507 8.83277 14.6094 8.50944 14.8814 7.69811C14.9747 7.42011 15.064 7.16744 15.1354 6.96411C15.2474 6.64744 15.3447 6.37144 15.3447 6.30811C15.29 6.33877 15.0947 6.55611 14.87 6.80544Z"
                                        fill="white" />
                                    <path id="Vector_7"
                                        d="M10.2053 8.642C10.5127 8.326 10.0893 7.78733 9.68334 7.352C9.48401 7.13733 9.30401 6.93867 9.16001 6.77867C8.75467 6.32933 8.67467 6.24333 8.63067 6.26933C8.58934 6.29467 8.62534 6.408 8.82601 6.978C8.89734 7.18067 8.98667 7.43333 9.08001 7.71133C9.26667 8.26667 9.53201 8.88733 9.95001 8.78867L14.7953 16.932C14.8027 16.944 14.8173 16.958 14.848 16.958H14.85C14.889 16.9528 14.9265 16.9396 14.9602 16.9193C14.9939 16.899 15.0231 16.872 15.046 16.84C15.06 16.8133 15.0553 16.794 15.048 16.782L10.2053 8.642Z"
                                        fill="#141414" />
                                    <path id="Vector_8"
                                        d="M10.1667 8.62459C10.4033 8.39793 10.2453 8.01393 9.65399 7.37926C9.45399 7.16459 9.27466 6.96526 9.12999 6.80526C8.90532 6.55593 8.70933 6.33859 8.65399 6.30859C8.65399 6.37193 8.75133 6.64793 8.86333 6.96459C8.93466 7.16793 9.02466 7.42059 9.11732 7.69859C9.38999 8.50993 9.64799 8.83326 9.95333 8.74659L9.96799 8.74259L9.97599 8.75593L14.8287 16.9119C14.832 16.9179 14.8413 16.9186 14.8473 16.9186H14.8487C14.913 16.9087 14.9709 16.874 15.01 16.8219C15.0127 16.8173 15.016 16.8086 15.0133 16.8039L10.1533 8.63593L10.1667 8.62459Z"
                                        fill="white" />
                                    <path id="Vector_9"
                                        d="M12.012 6.97198L12 6.96265L11.988 6.97198C10.3267 8.21865 9.51868 9.85931 9.51868 11.9873C9.51868 14.1153 10.326 15.756 11.988 17.0033L12 17.012L12.012 17.0033C13.6733 15.7566 14.4813 14.116 14.4813 11.9873C14.4813 9.85865 13.6733 8.21731 12.012 6.97198Z"
                                        fill="#141414" />
                                    <path id="Vector_10"
                                        d="M13.9194 9.3727C13.5174 8.46403 12.8854 7.67936 11.9994 7.0127C11.1154 7.6787 10.484 8.46203 10.0814 9.36803C10.4314 10.1554 10.6027 11.0134 10.6027 11.9927C10.6027 12.9707 10.432 13.8267 10.0834 14.6114C10.486 15.5154 11.1167 16.2974 11.9987 16.9627C12.8827 16.2967 13.514 15.5134 13.916 14.6067C13.5687 13.8214 13.3987 12.966 13.3987 11.9927C13.4 11.018 13.5707 10.1614 13.9194 9.3727Z"
                                        fill="#BB1600" />
                                    <path id="Vector_11"
                                        d="M12 12.618C12.204 12.618 12.37 12.3353 12.37 11.9873C12.37 11.6393 12.204 11.356 12 11.356C11.796 11.356 11.6307 11.6387 11.6307 11.9873C11.63 12.3353 11.796 12.618 12 12.618ZM11.846 10.9533C11.5114 10.4607 11.3487 9.83534 11.3487 9.07267C11.3487 8.30934 11.5114 7.68401 11.846 7.19067V10.9533ZM12.154 10.9533C12.488 10.4607 12.65 9.83534 12.65 9.07267C12.65 8.30934 12.488 7.68401 12.154 7.19067V10.9533ZM11.846 13.02C11.5114 13.512 11.3487 14.138 11.3487 14.9007C11.3487 15.6647 11.5114 16.2887 11.846 16.782V13.02ZM12.154 13.02C12.488 13.512 12.65 14.138 12.65 14.9007C12.65 15.6647 12.488 16.2887 12.154 16.782V13.02Z"
                                        fill="white" />
                                </g>
                            </g>
                        </g>
                    </g>
                </g>
            </g>
        </g>
    </g>
    <defs>
        <filter id="filter0_d_392_4919" x="-16" y="-15" width="90" height="56" filterUnits="userSpaceOnUse"
            color-interpolation-filters="sRGB">
            <feFlood flood-opacity="0" result="BackgroundImageFix" />
            <feColorMatrix in="SourceAlpha" type="matrix" values="0 0 0 0 0 0 0 0 0 0 0 0 0 0 0 0 0 0 127 0"
                result="hardAlpha" />
            <feOffset dy="1" />
            <feGaussianBlur stdDeviation="1" />
            <feComposite in2="hardAlpha" operator="out" />
            <feColorMatrix type="matrix" values="0 0 0 0 0.0627451 0 0 0 0 0.0941176 0 0 0 0 0.156863 0 0 0 0.05 0" />
            <feBlend mode="normal" in2="BackgroundImageFix" result="effect1_dropShadow_392_4919" />
            <feBlend mode="normal" in="SourceGraphic" in2="effect1_dropShadow_392_4919" result="shape" />
        </filter>
        <clipPath id="clip0_392_4919">
            <rect width="360" height="800" fill="white" transform="translate(-30 -182)" />
        </clipPath>
        <clipPath id="clip1_392_4919">
            <rect width="24" height="24" fill="white" />
        </clipPath>
    </defs>
</svg>