<svg width="39" height="39" viewBox="0 0 39 39" fill="none" xmlns="http://www.w3.org/2000/svg">
<path fill-rule="evenodd" clip-rule="evenodd" d="M25.9481 1.85093H13.7567C12.9196 1.8509 12.1974 1.85088 11.6026 1.89948C10.9748 1.95077 10.3504 2.06402 9.74948 2.37019C8.85307 2.82693 8.12426 3.55574 7.66751 4.45216C7.36135 5.05303 7.2481 5.67747 7.1968 6.30529C7.14821 6.9001 7.14823 7.62225 7.14826 8.45935V30.1789C7.14823 31.016 7.14821 31.7382 7.1968 32.333C7.2481 32.9608 7.36135 33.5853 7.66751 34.1861C8.12426 35.0826 8.85307 35.8114 9.74948 36.2681C10.3504 36.5743 10.9748 36.6875 11.6026 36.7388C12.1974 36.7874 12.9196 36.7874 13.7567 36.7874H25.9481C26.7852 36.7874 27.5074 36.7874 28.1022 36.7388C28.73 36.6875 29.3545 36.5743 29.9554 36.2681C30.8518 35.8114 31.5806 35.0826 32.0373 34.1861C32.3435 33.5853 32.4567 32.9608 32.508 32.333C32.5566 31.7382 32.5566 31.0161 32.5566 30.1791V8.45944C32.5566 7.62239 32.5566 6.90008 32.508 6.30528C32.4567 5.67747 32.3435 5.05303 32.0373 4.45216C31.5806 3.55574 30.8518 2.82693 29.9554 2.37019C29.3545 2.06402 28.73 1.95077 28.1022 1.89948C27.5074 1.85088 26.7852 1.8509 25.9481 1.85093ZM19.8524 25.6712C18.5369 25.6712 17.4704 26.7377 17.4704 28.0533C17.4704 29.3688 18.5369 30.4353 19.8524 30.4353C21.168 30.4353 22.2344 29.3688 22.2344 28.0533C22.2344 26.7377 21.168 25.6712 19.8524 25.6712Z" fill="white" stroke="black" stroke-width="2.19147" stroke-linecap="round" stroke-linejoin="round"/>
</svg>
